<svg width="180" height="180" viewBox="0 0 180 180" fill="none" xmlns="http://www.w3.org/2000/svg">
  <style>
    @media (prefers-color-scheme: light) {
      .background { fill: #0f172a; }
      .foreground { fill: #f8fafc; }
    }
    @media (prefers-color-scheme: dark) {
      .background { fill: #f8fafc; }
      .foreground { fill: #0f172a; }
    }
  </style>
  <rect class="background" width="180" height="180" rx="36" />
  <path
    class="foreground"
    d="M34 124V56H48L82 101V56H97V124H84L49 78V124H34Z"
  />
  <path
    class="foreground"
    d="M121.5 126C101.4 126 89 111 89 90C89 69 101.4 54 121.5 54C141.7 54 154 69 154 90C154 111 141.7 126 121.5 126ZM121.5 112C132.8 112 139 102.8 139 90C139 77.2 132.8 68 121.5 68C110.3 68 104 77.2 104 90C104 102.8 110.3 112 121.5 112Z"
  />
</svg>